<svg xmlns="http://www.w3.org/2000/svg" width="50" height="51" fill="none" class="cmsp255-mx-auto cmsp255-empty:bg-[#E2E8F0] cmsp255-empty:h-[50px]" viewBox="0 0 50 32"><g clip-path="url(#clip0_2_12534)"><path stroke="#000" stroke-miterlimit="10" d="M8.49 26.53 4.5 26.5V22M4.5 6V.5h27a2 2 0 0 1 2 2v24.09l-13.84-.03"/><path fill="#000" d="m29.024 12.489-4.425-.86S28.933 4.15 29 4l-1.82 1.34-8.989 7.272c-.194.166-.1.468.166.52l4.425.86s-3.215 5.979-3.236 6.163L18.191 22.5l10.998-9.488c.19-.17.1-.472-.165-.523Z"/><path stroke="#000" stroke-miterlimit="10" d="M12 8.5H2M12 12.5H-5M12 16.5H3M38.21 26.59H33.5M33.09 6.33h6.025a2 2 0 0 1 1.566.756l7.598 9.565a3 3 0 0 1 .651 1.866v8.073"/><path stroke="#000" stroke-miterlimit="10" d="M36.57 6.84v8.88a2 2 0 0 0 2 2h10.36M42.29 30.55a4.09 4.09 0 1 0 0-8.18 4.09 4.09 0 0 0 0 8.18ZM12.19 30.55a4.09 4.09 0 1 0 0-8.18 4.09 4.09 0 0 0 0 8.18Z"/></g><defs><clipPath id="clip0_2_12534"><path fill="#fff" d="M-5 0h54.43v31.05H-5z"/></clipPath></defs></svg>