<svg xmlns="http://www.w3.org/2000/svg" width="50" height="50" fill="none" viewBox="0 0 50 50"><path stroke="#0F0D1A" stroke-linecap="round" stroke-linejoin="round" d="M5.04 46.79h40.93c.85 0 1.54-.69 1.54-1.54v-5.5c0-.85-.69-1.54-1.54-1.54-.85 0-1.54-.69-1.54-1.54V7.77c0-.85-.69-1.54-1.54-1.54H5.04c-.85 0-1.54.69-1.54 1.54v19.7c0 .85.69 1.54 1.54 1.54h9.08c.85 0 1.54-.69 1.54-1.54v-6.86c0-.85.69-1.54 1.54-1.54h12.15c.85 0 1.54.69 1.54 1.54v15.18c0 .85-.69 1.54-1.54 1.54H5.04c-.85 0-1.54.69-1.54 1.54v6.4c0 .85.69 1.54 1.54 1.54v-.02Z"/><path stroke="#0F0D1A" stroke-linecap="round" stroke-linejoin="round" d="M10.28 6.24v11.3c0 .85-.69 1.54-1.54 1.54H7.59c-.85 0-1.54-.69-1.54-1.54V6.24M10.92 29.01v2.43c0 .85-.69 1.54-1.54 1.54H9c-.85 0-1.54-.69-1.54-1.54v-2.43"/><path stroke="#0F0D1A" stroke-linecap="square" stroke-linejoin="round" d="M9.191 32.98v2.34"/><path stroke="#0F0D1A" stroke-linecap="round" stroke-linejoin="round" d="M44.441 16.34h1.54c.85 0 1.54.69 1.54 1.54v5.72c0 .85-.69 1.54-1.54 1.54h-1.54M3.5 41.29h44.01M37.56 33.55c1.84 0 3.33-3.457 3.33-7.72 0-4.264-1.49-7.72-3.33-7.72-1.839 0-3.33 3.456-3.33 7.72 0 4.263 1.491 7.72 3.33 7.72Z"/><path stroke="#0F0D1A" stroke-linecap="square" stroke-linejoin="round" d="M15.328 10.39h20.34M20.328 14.66h20.34"/><path stroke="#0F0D1A" stroke-linecap="round" stroke-linejoin="round" d="M3.5 22.67h11.83"/><path stroke="#0F0D1A" stroke-linecap="square" stroke-linejoin="round" d="M32.41 3.5v2.74M25.5 3.5v2.74M39.07 2.5v3.74"/></svg>