<svg xmlns="http://www.w3.org/2000/svg" width="51" height="50" fill="none" viewBox="0 0 51 50"><path stroke="#0F0D1A" stroke-linecap="round" stroke-linejoin="round" d="M6.5 25c0-10.493 8.507-19 19-19s19 8.507 19 19-8.507 19-19 19c-4.037 0-7.78-1.259-10.857-3.406"/><path stroke="#000" d="m3.5 22 2.77 3 3.23-2.5"/><path stroke="#0F0D1A" d="m25.677 34-8.398-4.792a1.545 1.545 0 0 1-.779-1.342v-6.63M25.677 34l8.066-4.787c.47-.279.757-.784.757-1.33V20.91M25.677 34v-7.855M16.5 21.236l9.177 4.91m-9.177-4.91 5.162-2.945M34.5 20.909l-8.063-4.486a1.546 1.546 0 0 0-1.517.009l-3.258 1.859M34.5 20.909l-4.412 2.618m-4.412 2.618 4.412-2.618m-8.426-5.236 8.426 5.236"/></svg>