<svg xmlns="http://www.w3.org/2000/svg" width="50" height="51" fill="none" viewBox="0 0 50 50"><rect width="25" height="41" x="12.5" y="4.5" stroke="#262433" rx="4.5"/><circle cx="25.5" cy="40.5" r="2" stroke="#262433"/><g clip-path="url(#clip0_2_12638)"><circle cx="25" cy="18" r="5.4" stroke="#262433" stroke-linecap="round" stroke-linejoin="round" stroke-miterlimit="10" stroke-width="1.2"/><path stroke="#262433" stroke-linecap="round" stroke-linejoin="round" stroke-miterlimit="10" stroke-width="1.2" d="M34.4 33a9.4 9.4 0 1 1-18.8 0 9.4 9.4 0 1 1 18.8 0Z"/><path stroke="#000" d="M16 31.5h18"/></g><path stroke="#000" stroke-linecap="round" stroke-linejoin="round" d="M8.79 19.013c-.364 1.273-.873 4.19 0 5.673M41.407 24.693c.319-1.285.726-4.218-.198-5.67M7 17c-.755 2.02-1.811 6.646 0 9M43.315 26.024c.612-2.067 1.343-6.757-.627-8.978"/><defs><clipPath id="clip0_2_12638"><path fill="#fff" d="M15 12h20v20H15z"/></clipPath></defs></svg>